<svg width="53" height="32" viewBox="0 0 53 32" fill="none" xmlns="http://www.w3.org/2000/svg">
<rect x="0.761475" y="-9.15527e-05" width="51.4771" height="32" rx="16" fill="#232228"/>
<path d="M21.9561 20.4688C21.7141 21.0278 21.4277 21.5423 21.0959 22.0154C20.6436 22.6603 20.2732 23.1067 19.9878 23.3546C19.5453 23.7615 19.0713 23.9699 18.5636 23.9818C18.1992 23.9818 17.7597 23.878 17.2481 23.6677C16.7348 23.4583 16.2632 23.3546 15.8319 23.3546C15.3795 23.3546 14.8944 23.4583 14.3755 23.6677C13.8558 23.878 13.4372 23.9877 13.1171 23.9985C12.6303 24.0193 12.1451 23.805 11.6607 23.3546C11.3516 23.085 10.965 22.6228 10.5018 21.968C10.0048 21.2687 9.59621 20.4579 9.27612 19.5335C8.93332 18.535 8.76147 17.5681 8.76147 16.632C8.76147 15.5598 8.99317 14.635 9.45725 13.86C9.82198 13.2375 10.3072 12.7464 10.9145 12.386C11.5218 12.0255 12.178 11.8418 12.8846 11.83C13.2713 11.83 13.7783 11.9496 14.4084 12.1847C15.0367 12.4205 15.4402 12.5401 15.6171 12.5401C15.7493 12.5401 16.1975 12.4003 16.9573 12.1215C17.6758 11.8629 18.2822 11.7558 18.7789 11.798C20.1251 11.9067 21.1364 12.4373 21.809 13.3933C20.605 14.1228 20.0095 15.1445 20.0214 16.4552C20.0322 17.4761 20.4026 18.3256 21.1305 19.0002C21.4603 19.3132 21.8287 19.5552 22.2386 19.7271C22.1497 19.9848 22.0559 20.2317 21.9561 20.4688V20.4688ZM18.8688 8.32C18.8688 9.12018 18.5765 9.86731 17.9938 10.5588C17.2906 11.3809 16.44 11.856 15.5177 11.781C15.506 11.685 15.4991 11.584 15.4991 11.4778C15.4991 10.7097 15.8335 9.88756 16.4274 9.21538C16.7239 8.87504 17.101 8.59206 17.5582 8.36632C18.0145 8.14395 18.4461 8.02097 18.852 7.99991C18.8639 8.10688 18.8688 8.21386 18.8688 8.31999V8.32Z" fill="white"/>
<path fill-rule="evenodd" clip-rule="evenodd" d="M36.4572 9.03703C35.169 9.17794 33.8747 9.71454 32.941 10.4947C32.7781 10.6309 32.6297 10.7422 32.6113 10.7422C32.5929 10.7422 32.224 10.3803 31.7915 9.93802C31.0567 9.18633 30.9938 9.13378 30.8286 9.13378C30.5769 9.13378 30.3772 9.25622 30.2938 9.46171C30.1613 9.78799 30.2113 9.87085 31.0772 10.761L31.8767 11.5828L31.5982 12.026C31.1415 12.753 30.8478 13.6012 30.7545 14.4629C30.7222 14.7611 30.7038 16.5706 30.7038 19.4651V23.9999H37.1438H43.5837V19.2784C43.5837 14.0939 43.5865 14.1517 43.2947 13.2526C43.1535 12.8177 42.8873 12.267 42.6331 11.8838L42.5012 11.685L43.3502 10.812C44.269 9.86744 44.3166 9.79028 44.1832 9.46171C44.0998 9.25617 43.9001 9.13378 43.6483 9.13378C43.4824 9.13378 43.419 9.18735 42.6302 9.99475L41.7891 10.8557L41.5381 10.6358C40.1734 9.43973 38.2651 8.83934 36.4572 9.03703ZM34.9 12.7364C35.0072 12.7865 35.1564 12.9105 35.2315 13.0118C35.3526 13.1753 35.3681 13.2356 35.3681 13.5449C35.3681 13.8544 35.3527 13.9144 35.2311 14.0785C34.9545 14.4517 34.41 14.5511 34.0428 14.2955C33.8548 14.1646 33.6397 13.7711 33.6397 13.5581C33.6397 13.247 33.8999 12.8429 34.1843 12.7122C34.3847 12.6202 34.6721 12.6299 34.9 12.7364ZM40.115 12.7181C40.4876 12.8784 40.6687 13.191 40.6385 13.6216C40.614 13.9698 40.4437 14.2207 40.1369 14.3604C39.6972 14.5606 39.2319 14.3854 39.0134 13.9374C38.8773 13.6582 38.8668 13.4916 38.9694 13.2387C39.1719 12.7396 39.6547 12.5202 40.115 12.7181Z" fill="white"/>
</svg>
