<svg width="34" height="32" viewBox="0 0 34 32" fill="none" xmlns="http://www.w3.org/2000/svg">
<rect x="0.615845" width="32.7683" height="32" rx="16" fill="#232228"/>
<path fill-rule="evenodd" clip-rule="evenodd" d="M14.2408 8.19465C13.2277 8.5521 11.8762 9.12424 11.4455 9.3779C11.2997 9.46378 11.187 9.55986 11.1461 9.63311C11.1101 9.69776 10.8257 10.3162 10.5142 11.0074C9.71328 12.7844 9.16585 13.9244 8.87049 14.4305L8.61584 14.8669L8.76322 14.9523C8.97518 15.0752 9.76419 15.4067 10.9169 15.8573C11.4685 16.0729 11.9914 16.2778 12.0791 16.3127L12.2384 16.3761L12.2474 20.188L12.2564 24H17H21.7435L21.7526 20.188L21.7616 16.3761L21.9209 16.3126C22.0085 16.2776 22.5263 16.075 23.0715 15.8624C24.2033 15.4208 25.0224 15.0766 25.2367 14.9523L25.3841 14.8669L25.1295 14.4305C24.8352 13.9264 24.2912 12.7933 23.486 11.0074C23.1744 10.3162 22.8899 9.69776 22.8538 9.63311C22.7451 9.43833 22.2207 9.16637 20.965 8.65367C20.5067 8.46657 19.5265 8.10522 19.2431 8.01895C19.1771 7.99887 19.1533 8.02567 19.0595 8.22623C18.8538 8.66575 18.4759 8.97902 17.9153 9.17476C17.5925 9.28748 17.5694 9.29035 17 9.28957C16.4339 9.28879 16.4056 9.28521 16.0846 9.17394C15.5256 8.98015 15.1464 8.66624 14.941 8.22736C14.882 8.10133 14.8233 7.99902 14.8106 8.00001C14.7978 8.001 14.5414 8.08858 14.2408 8.19465Z" fill="white"/>
</svg>
