<?xml version="1.0" standalone="no"?>
<!DOCTYPE svg PUBLIC "-//W3C//DTD SVG 20010904//EN"
 "http://www.w3.org/TR/2001/REC-SVG-20010904/DTD/svg10.dtd">
<svg version="1.0" xmlns="http://www.w3.org/2000/svg"
 width="700.000000pt" height="700.000000pt" viewBox="0 0 700.000000 700.000000"
 preserveAspectRatio="xMidYMid meet">
<metadata>
Created by potrace 1.14, written by Peter Selinger 2001-2017
</metadata>
<g transform="translate(0.000000,700.000000) scale(0.100000,-0.100000)"
fill="#000000" stroke="none">
<path d="M416 6321 c3 -47 8 -93 9 -101 2 -12 -17 -16 -104 -20 l-106 -5 0
-202 c0 -112 2 -204 5 -204 3 -1 48 -2 100 -3 l95 -2 -3 -44 c-4 -71 -33 -244
-43 -256 -7 -8 -62 -12 -172 -12 -89 0 -170 0 -179 -1 -17 -1 -18 -18 -18
-206 0 -157 3 -205 13 -206 6 -1 63 -1 125 -1 61 0 112 -2 112 -5 0 -28 -150
-341 -214 -447 -35 -59 -36 -61 -36 -168 l0 -108 178 2 177 3 53 88 c77 129
162 303 222 457 29 74 57 144 62 156 9 20 17 21 169 21 87 0 159 -2 160 -6 0
-3 2 -30 4 -59 19 -237 178 -466 399 -577 134 -67 186 -77 429 -82 l217 -5 0
209 0 209 -183 1 -183 0 -66 32 c-103 48 -175 144 -181 238 l-2 38 101 1 c184
3 280 53 344 178 l35 69 0 446 0 446 -537 3 c-420 2 -538 5 -539 15 0 6 -2 21
-4 32 -2 11 -5 48 -6 82 -1 34 -5 66 -8 71 -3 5 -102 9 -219 9 l-213 0 7 -86z
m1089 -691 l0 -155 -347 -1 c-292 -1 -348 1 -348 12 0 8 7 56 15 107 8 50 15
112 17 137 2 25 6 47 10 50 3 3 152 5 330 5 l323 -1 0 -154z"/>
<path d="M3715 6376 c-22 -50 -83 -115 -139 -144 l-51 -27 -727 -3 -728 -3 0
-208 0 -209 120 2 120 3 -2 -156 c-3 -130 -5 -156 -18 -157 -8 -1 -31 -2 -50
-3 l-36 -1 2 -202 c1 -112 2 -206 3 -209 0 -3 21 -4 45 -2 51 5 54 1 60 -59
13 -120 63 -258 128 -350 101 -142 256 -247 438 -294 83 -22 98 -23 686 -24
l601 0 0 208 0 208 -586 0 -586 0 -56 26 c-107 49 -187 151 -192 244 l-2 39
623 1 c342 1 626 4 630 8 4 4 7 97 7 207 l0 199 -30 0 c-16 1 -301 1 -632 1
l-601 0 0 157 -1 157 357 0 c196 0 389 3 427 8 231 26 425 149 546 347 39 63
93 217 87 247 -3 17 -21 18 -217 19 l-213 2 -13 -32z"/>
<path d="M4169 6183 c-4 -15 -3 -304 0 -379 1 -20 6 -22 66 -20 l65 1 0 -727
0 -728 624 0 c685 0 706 1 852 60 257 102 444 353 456 610 l3 55 -212 2 c-157
1 -213 -2 -214 -10 -5 -84 -62 -187 -131 -237 -84 -61 -104 -63 -536 -64 -217
-1 -398 2 -403 5 -6 3 -8 70 -7 155 l3 149 390 1 c215 0 419 4 454 8 268 30
508 214 610 467 23 58 51 198 46 227 -2 9 -4 19 -4 22 -1 3 -408 8 -421 5 -1
0 -3 -18 -6 -40 -13 -101 -104 -214 -202 -251 -42 -16 -92 -18 -460 -20 l-413
-3 3 157 3 156 535 1 535 0 1 208 1 207 -817 0 c-771 0 -818 -1 -821 -17z"/>
<path d="M6177 4437 c-86 -91 -160 -149 -258 -200 -71 -38 -193 -82 -254 -92
-82 -14 -75 7 -75 -220 0 -151 3 -204 12 -207 29 -10 222 33 338 74 151 54
304 140 420 236 68 56 210 203 210 218 0 6 -17 24 -37 40 -21 16 -51 41 -68
55 -16 14 -68 56 -115 94 -47 38 -87 72 -90 76 -3 4 -40 -29 -83 -74z"/>
<path d="M4 4121 c-2 -2 -4 -96 -4 -208 l0 -203 58 -1 c31 0 116 0 187 0 l130
2 1 -158 0 -158 -80 1 -81 0 0 -205 0 -206 80 -5 80 -5 7 -67 c25 -258 198
-488 446 -592 137 -58 152 -59 720 -61 l522 -1 0 208 0 207 -512 3 c-502 3
-514 3 -560 25 -99 46 -175 143 -186 241 l-5 42 564 0 564 0 0 208 0 207 -563
0 c-367 0 -562 3 -563 10 -1 14 -1 244 0 277 l1 27 593 0 c325 0 609 0 630 0
l37 1 0 205 c0 113 -3 205 -7 206 -27 3 -2055 3 -2059 0z"/>
<path d="M2211 4120 c-3 -3 -6 -96 -6 -207 l0 -203 75 -1 c41 0 95 -2 120 -2
l45 -2 0 -517 1 -518 -121 0 -120 0 0 -200 c0 -110 1 -200 3 -200 3 0 30 24
62 54 92 84 259 206 328 239 78 36 158 40 219 8 54 -27 108 -91 123 -146 13
-47 7 -119 -12 -142 -6 -8 -8 -17 -4 -21 4 -4 64 -7 132 -8 l124 -1 -1 76 c-3
92 5 132 37 191 55 102 192 143 306 92 49 -22 74 -43 106 -88 24 -35 52 -131
52 -181 0 -18 5 -33 10 -33 38 0 194 103 256 168 81 86 161 236 179 335 l7 37
-221 0 -220 0 -15 -27 c-23 -44 -79 -96 -132 -123 l-49 -25 -310 0 -309 0 -1
508 c0 336 3 512 10 517 6 5 168 9 360 9 193 0 376 0 408 0 l57 1 0 208 0 207
-746 0 c-410 0 -749 -2 -753 -5z"/>
<path d="M4326 4113 c-278 -40 -504 -232 -592 -503 -14 -46 -18 -102 -22 -342
l-4 -288 1051 0 1051 0 -5 -32 c-3 -18 -8 -40 -11 -49 -2 -9 5 -24 17 -35 12
-10 29 -31 38 -45 l16 -26 120 45 c66 24 136 50 155 57 19 7 49 18 66 25 l31
11 -2 227 c-1 125 -3 229 -4 232 0 3 -470 6 -1042 5 -839 0 -1043 2 -1046 13
-9 21 18 104 49 154 33 53 77 89 146 121 46 22 56 22 562 24 283 1 524 2 536
3 21 0 21 4 21 205 0 201 -1 205 -21 206 -12 1 -248 2 -525 3 -341 1 -530 -3
-585 -11z"/>
<path d="M6344 2819 c-63 -11 -123 -31 -304 -99 -91 -35 -184 -68 -207 -76
l-42 -13 -32 70 c-27 58 -40 75 -76 96 -54 31 -107 28 -158 -11 -82 -63 -73
-193 27 -406 22 -47 41 -94 44 -105 2 -11 6 -32 9 -47 4 -15 8 -110 9 -211 2
-101 6 -192 9 -203 3 -10 8 -35 11 -56 8 -52 35 -129 57 -160 28 -39 90 -54
151 -37 44 12 66 -22 66 -103 0 -75 4 -87 30 -84 14 2 18 17 22 82 7 112 14
120 140 165 83 30 518 245 604 299 81 51 161 138 195 210 51 112 20 254 -70
312 -74 48 -134 54 -377 34 l-32 -2 27 28 c20 21 30 25 40 17 7 -6 13 -8 14
-3 2 27 10 55 28 93 20 47 20 106 -2 150 -26 53 -95 76 -183 60z m-298 -381
c-129 -129 -197 -188 -207 -182 -5 3 -7 18 -5 32 2 15 5 37 5 49 1 26 76 104
122 129 43 22 107 42 136 43 19 1 9 -13 -51 -71z m655 -165 c16 -16 -1 -42
-68 -103 -131 -117 -441 -289 -662 -365 l-104 -35 5 68 c6 87 42 155 114 222
102 92 324 187 512 216 20 3 38 7 39 8 8 8 155 -2 164 -11z"/>
<path d="M5142 2757 c-52 -65 -58 -141 -25 -295 13 -64 31 -148 39 -187 18
-85 21 -238 5 -320 -15 -79 -64 -181 -109 -228 -45 -46 -108 -67 -190 -62 -60
2 -108 25 -139 65 -33 41 -59 158 -69 304 -10 167 -14 201 -30 263 -33 134
-98 258 -170 328 -102 100 -244 35 -193 -89 8 -17 14 -62 14 -100 0 -46 4 -71
13 -74 8 -2 12 10 12 44 0 41 2 46 13 34 24 -26 83 -200 102 -302 3 -13 7 -34
10 -48 14 -73 39 -256 50 -375 15 -154 59 -217 177 -250 99 -28 325 -23 431 9
40 12 45 12 56 -5 22 -36 51 -17 51 32 0 10 4 19 9 19 4 0 28 18 53 39 83 73
130 211 131 385 1 77 -9 245 -18 297 -2 13 -6 51 -10 84 -14 141 -28 221 -46
270 -33 87 -142 194 -167 162z"/>
<path d="M4621 2633 c12 -21 28 -45 34 -53 22 -28 84 -184 101 -256 l17 -71
126 2 c71 1 125 5 124 11 0 5 -13 58 -28 119 -15 60 -29 149 -32 197 l-6 88
-179 0 -180 0 23 -37z"/>
<path d="M3395 2501 c-68 -21 -86 -59 -80 -176 2 -49 6 -103 9 -120 3 -16 12
-77 20 -135 8 -58 18 -123 22 -145 19 -122 29 -277 25 -405 -8 -275 -8 -265
19 -302 21 -29 25 -45 28 -133 3 -109 6 -125 21 -125 6 0 10 40 9 100 -1 55 2
103 5 107 12 12 21 -7 22 -45 1 -45 10 -62 35 -62 25 0 39 27 35 69 -3 37 22
71 53 71 10 0 22 4 28 8 18 16 210 91 294 116 111 32 209 46 295 41 58 -3 72
-8 87 -27 15 -19 19 -21 27 -8 5 8 7 18 4 23 -2 4 6 19 20 33 27 26 42 82 32
114 -4 11 -26 32 -51 46 -37 22 -55 26 -116 25 -40 -1 -91 -4 -113 -6 -22 -2
-69 -7 -105 -10 -102 -9 -176 -23 -300 -57 -63 -18 -117 -31 -120 -30 -3 1 -6
10 -7 19 0 10 -4 41 -7 68 -3 28 -8 70 -11 95 -16 150 -27 349 -29 560 -2 157
-5 191 -21 223 -26 55 -81 84 -130 68z"/>
<path d="M2645 2440 c-65 -34 -100 -60 -220 -160 -98 -81 -113 -97 -196 -207
-82 -108 -139 -214 -167 -307 -41 -139 -35 -419 11 -520 25 -55 63 -97 108
-121 40 -22 49 -63 49 -230 0 -123 3 -155 15 -165 10 -8 14 -29 14 -67 -1 -30
3 -59 10 -66 14 -14 13 -28 16 218 3 246 2 235 15 235 6 0 10 -21 10 -47 0
-60 13 -82 37 -67 13 8 18 25 19 66 1 75 18 113 57 129 166 64 763 400 819
461 59 64 73 154 28 178 -45 24 -118 0 -250 -80 -41 -26 -111 -66 -155 -89
-44 -24 -110 -61 -148 -83 -87 -51 -221 -113 -272 -126 -76 -21 -93 -20 -134
0 -53 26 -69 76 -64 201 7 180 60 302 184 427 86 84 242 195 265 186 8 -3 15
-15 15 -26 1 -11 3 -24 4 -30 1 -5 3 -15 4 -21 0 -5 6 -7 11 -4 6 3 10 29 10
57 0 42 6 61 34 102 33 48 40 69 37 108 -1 20 -46 68 -64 69 -7 0 -20 2 -30 4
-10 2 -43 -9 -72 -25z"/>
<path d="M210 2309 c-221 -172 -207 -144 -119 -234 225 -233 554 -397 864
-431 28 -3 60 -7 73 -9 47 -8 47 -7 46 218 -1 116 -2 215 -3 218 0 3 -29 9
-64 13 -202 20 -436 138 -582 292 -28 30 -53 54 -55 54 -3 0 -75 -55 -160
-121z"/>
</g>
</svg>
